<svg width="30" height="30" viewBox="0 0 30 30" fill="none" xmlns="http://www.w3.org/2000/svg">
<path d="M27.0938 11.2969C26.4349 9.73743 25.4798 8.32062 24.2812 7.125C23.0856 5.92649 21.6688 4.97134 20.1094 4.3125C18.4893 3.62695 16.7725 3.28125 15 3.28125C13.2275 3.28125 11.5107 3.62695 9.89062 4.3125C8.33118 4.97134 6.91437 5.92649 5.71875 7.125C4.52024 8.32062 3.56509 9.73743 2.90625 11.2969C2.2207 12.917 1.875 14.6338 1.875 16.4062C1.875 20.2939 3.58301 23.9561 6.55957 26.458L6.60938 26.499C6.7793 26.6396 6.99316 26.7188 7.21289 26.7188H22.79C23.0098 26.7188 23.2236 26.6396 23.3936 26.499L23.4434 26.458C26.417 23.9561 28.125 20.2939 28.125 16.4062C28.125 14.6338 27.7764 12.917 27.0938 11.2969ZM22.3066 24.4922H7.69336C6.56132 23.4715 5.65655 22.2241 5.03776 20.8311C4.41898 19.4381 4.10001 17.9305 4.10156 16.4062C4.10156 13.4941 5.23535 10.7578 7.29492 8.70117C9.35449 6.6416 12.0908 5.50781 15 5.50781C17.9121 5.50781 20.6484 6.6416 22.7051 8.70117C24.7646 10.7607 25.8984 13.4971 25.8984 16.4062C25.8984 19.5 24.5947 22.4268 22.3066 24.4922ZM18.2666 12.3486C18.2226 12.305 18.1631 12.2805 18.1011 12.2805C18.0391 12.2805 17.9796 12.305 17.9355 12.3486L15.46 14.8242C14.9121 14.6777 14.3057 14.8184 13.875 15.249C13.7225 15.4013 13.6014 15.5821 13.5189 15.7812C13.4363 15.9803 13.3938 16.1937 13.3938 16.4092C13.3938 16.6247 13.4363 16.8381 13.5189 17.0372C13.6014 17.2362 13.7225 17.4171 13.875 17.5693C14.0273 17.7219 14.2081 17.8429 14.4072 17.9255C14.6062 18.008 14.8196 18.0505 15.0352 18.0505C15.2507 18.0505 15.4641 18.008 15.6632 17.9255C15.8622 17.8429 16.0431 17.7219 16.1953 17.5693C16.3994 17.3659 16.5461 17.1122 16.6207 16.8339C16.6953 16.5556 16.6951 16.2626 16.6201 15.9844L19.0957 13.5088C19.1865 13.418 19.1865 13.2686 19.0957 13.1777L18.2666 12.3486ZM14.3555 9.375H15.6445C15.7734 9.375 15.8789 9.26953 15.8789 9.14062V6.79688C15.8789 6.66797 15.7734 6.5625 15.6445 6.5625H14.3555C14.2266 6.5625 14.1211 6.66797 14.1211 6.79688V9.14062C14.1211 9.26953 14.2266 9.375 14.3555 9.375ZM21.9727 15.7617V17.0508C21.9727 17.1797 22.0781 17.2852 22.207 17.2852H24.5508C24.6797 17.2852 24.7852 17.1797 24.7852 17.0508V15.7617C24.7852 15.6328 24.6797 15.5273 24.5508 15.5273H22.207C22.0781 15.5273 21.9727 15.6328 21.9727 15.7617ZM22.3447 9.98437L21.4336 9.07324C21.3895 9.02962 21.3301 9.00516 21.2681 9.00516C21.2061 9.00516 21.1466 9.02962 21.1025 9.07324L19.4443 10.7314C19.4007 10.7755 19.3762 10.835 19.3762 10.897C19.3762 10.959 19.4007 11.0185 19.4443 11.0625L20.3555 11.9736C20.4463 12.0645 20.5957 12.0645 20.6865 11.9736L22.3447 10.3154C22.4355 10.2246 22.4355 10.0752 22.3447 9.98437ZM8.90918 9.07324C8.86513 9.02962 8.80564 9.00516 8.74365 9.00516C8.68166 9.00516 8.62217 9.02962 8.57812 9.07324L7.66699 9.98437C7.62337 10.0284 7.59891 10.0879 7.59891 10.1499C7.59891 10.2119 7.62337 10.2714 7.66699 10.3154L9.32519 11.9736C9.41602 12.0645 9.56543 12.0645 9.65625 11.9736L10.5674 11.0625C10.6582 10.9717 10.6582 10.8223 10.5674 10.7314L8.90918 9.07324ZM7.67578 15.5273H5.33203C5.20312 15.5273 5.09766 15.6328 5.09766 15.7617V17.0508C5.09766 17.1797 5.20312 17.2852 5.33203 17.2852H7.67578C7.80469 17.2852 7.91016 17.1797 7.91016 17.0508V15.7617C7.91016 15.6328 7.80469 15.5273 7.67578 15.5273Z" fill="#232020"/>
</svg>
