<svg width="393" height="122" viewBox="0 0 393 122" fill="none" xmlns="http://www.w3.org/2000/svg">
<path d="M127.42 76.12C126.1 77.36 124.48 78.34 122.56 79.06C120.64 79.82 118.9 80.2 117.34 80.2C113.38 80.2 110.56 79.04 108.88 76.72C107.24 74.36 106.42 71.52 106.42 68.2V49.9H114.28V67.84C114.28 69.68 114.72 71.1 115.6 72.1C116.48 73.06 117.76 73.54 119.44 73.54C120.48 73.54 121.58 73.28 122.74 72.76C123.9 72.24 124.96 71.64 125.92 70.96V49.9H133.72V79H129.64L127.42 76.12ZM149.392 36.64V60.52L161.872 49.06L166.252 54.58L158.092 61.72L168.772 79H159.832L152.512 66.7L149.392 69.46V79H141.652V37.3L149.392 36.64ZM193.572 76.12C192.252 77.36 190.632 78.34 188.712 79.06C186.792 79.82 185.052 80.2 183.492 80.2C179.532 80.2 176.712 79.04 175.032 76.72C173.392 74.36 172.572 71.52 172.572 68.2V49.9H180.432V67.84C180.432 69.68 180.872 71.1 181.752 72.1C182.632 73.06 183.912 73.54 185.592 73.54C186.632 73.54 187.732 73.28 188.892 72.76C190.052 72.24 191.112 71.64 192.072 70.96V49.9H199.872V79H195.792L193.572 76.12ZM215.544 36.64V79H207.804V37.3L215.544 36.64ZM229.142 70.3C229.142 71.14 229.482 71.9 230.162 72.58C230.842 73.22 231.742 73.54 232.862 73.54C233.942 73.54 235.022 73.3 236.102 72.82C237.222 72.34 238.282 71.62 239.282 70.66V66.22H233.402C232.042 66.22 230.982 66.64 230.222 67.48C229.502 68.32 229.142 69.26 229.142 70.3ZM232.982 79.72C229.422 79.72 226.782 78.86 225.062 77.14C223.342 75.38 222.482 73.1 222.482 70.3C222.482 67.3 223.502 65 225.542 63.4C227.582 61.8 230.242 61 233.522 61H239.222C239.182 59.52 238.742 58.38 237.902 57.58C237.102 56.74 235.982 56.32 234.542 56.32C233.182 56.32 231.702 56.52 230.102 56.92C228.502 57.28 227.162 57.72 226.082 58.24L223.982 51.76C225.102 51 226.802 50.38 229.082 49.9C231.402 49.38 233.182 49.12 234.422 49.12C237.902 49.12 240.882 50.14 243.362 52.18C245.842 54.18 247.082 56.74 247.082 59.86V79H243.062L241.142 76.54C240.062 77.38 238.782 78.12 237.302 78.76C235.862 79.4 234.422 79.72 232.982 79.72ZM274.959 76.12C273.639 77.36 272.019 78.34 270.099 79.06C268.179 79.82 266.439 80.2 264.879 80.2C260.919 80.2 258.099 79.04 256.419 76.72C254.779 74.36 253.959 71.52 253.959 68.2V49.9H261.819V67.84C261.819 69.68 262.259 71.1 263.139 72.1C264.019 73.06 265.299 73.54 266.979 73.54C268.019 73.54 269.119 73.28 270.279 72.76C271.439 72.24 272.499 71.64 273.459 70.96V49.9H281.259V79H277.179L274.959 76.12ZM295.191 53.02C296.511 51.7 298.151 50.66 300.111 49.9C302.111 49.14 303.891 48.76 305.451 48.76C309.411 48.76 312.211 49.92 313.851 52.24C315.531 54.56 316.371 57.4 316.371 60.76V79H308.571V61.12C308.571 59.28 308.131 57.88 307.251 56.92C306.371 55.92 305.091 55.42 303.411 55.42C302.291 55.42 301.111 55.72 299.871 56.32C298.671 56.88 297.571 57.54 296.571 58.3V79H288.771V49.9H292.851L295.191 53.02ZM337.675 55.42C334.955 55.42 333.055 56.38 331.975 58.3C330.935 60.22 330.415 62.2 330.415 64.24C330.415 66.52 330.895 68.56 331.855 70.36C332.815 72.16 334.755 73.06 337.675 73.06C338.595 73.06 339.555 72.86 340.555 72.46C341.595 72.02 342.555 71.52 343.435 70.96V57.52C342.555 56.92 341.595 56.42 340.555 56.02C339.555 55.62 338.595 55.42 337.675 55.42ZM351.295 36.64V79H347.215L345.055 76.18C343.735 77.3 342.175 78.18 340.375 78.82C338.615 79.42 337.015 79.72 335.575 79.72C331.335 79.72 328.075 78.24 325.795 75.28C323.515 72.32 322.375 68.64 322.375 64.24C322.375 59.84 323.575 56.16 325.975 53.2C328.415 50.24 331.735 48.76 335.935 48.76C337.015 48.76 338.235 48.96 339.595 49.36C340.955 49.72 342.235 50.24 343.435 50.92V37.3L351.295 36.64ZM375.043 49.9L376.603 56.14C375.283 56.14 373.743 56.52 371.983 57.28C370.263 58.04 368.563 59.16 366.883 60.64V79H359.083V49.9H363.163L365.743 54.16C366.943 53.12 368.403 52.16 370.123 51.28C371.843 50.36 373.483 49.9 375.043 49.9ZM384.487 37C385.727 37 386.767 37.42 387.607 38.26C388.487 39.1 388.927 40.14 388.927 41.38C388.927 42.62 388.487 43.66 387.607 44.5C386.767 45.34 385.727 45.76 384.487 45.76C383.287 45.76 382.267 45.34 381.427 44.5C380.587 43.66 380.167 42.62 380.167 41.38C380.167 40.14 380.587 39.1 381.427 38.26C382.267 37.42 383.287 37 384.487 37ZM388.387 49.9V79H380.587V49.9H388.387Z" fill="black"/>
<path d="M82.9 44.52C85.26 44.96 87.2 46.14 88.72 48.06C90.24 49.98 91 52.18 91 54.66C91 56.9 90.44 58.88 89.32 60.6C88.24 62.28 86.66 63.6 84.58 64.56C82.5 65.52 80.04 66 77.2 66H59.14V24.12H76.42C79.26 24.12 81.7 24.58 83.74 25.5C85.82 26.42 87.38 27.7 88.42 29.34C89.5 30.98 90.04 32.84 90.04 34.92C90.04 37.36 89.38 39.4 88.06 41.04C86.78 42.68 85.06 43.84 82.9 44.52ZM67.54 41.4H75.22C77.22 41.4 78.76 40.96 79.84 40.08C80.92 39.16 81.46 37.86 81.46 36.18C81.46 34.5 80.92 33.2 79.84 32.28C78.76 31.36 77.22 30.9 75.22 30.9H67.54V41.4ZM76 59.16C78.04 59.16 79.62 58.68 80.74 57.72C81.9 56.76 82.48 55.4 82.48 53.64C82.48 51.84 81.88 50.44 80.68 49.44C79.48 48.4 77.86 47.88 75.82 47.88H67.54V59.16H76Z" fill="white"/>
<rect y="12" width="100" height="100" rx="12" fill="#232020"/>
<path d="M75.2 61.36C78.3467 61.9467 80.9333 63.52 82.96 66.08C84.9867 68.64 86 71.5733 86 74.88C86 77.8667 85.2533 80.5067 83.76 82.8C82.32 85.04 80.2133 86.8 77.44 88.08C74.6667 89.36 71.3867 90 67.6 90H43.52V34.16H66.56C70.3467 34.16 73.6 34.7733 76.32 36C79.0933 37.2267 81.1733 38.9333 82.56 41.12C84 43.3067 84.72 45.7867 84.72 48.56C84.72 51.8133 83.84 54.5333 82.08 56.72C80.3733 58.9067 78.08 60.4533 75.2 61.36ZM54.72 57.2H64.96C67.6267 57.2 69.68 56.6133 71.12 55.44C72.56 54.2133 73.28 52.48 73.28 50.24C73.28 48 72.56 46.2667 71.12 45.04C69.68 43.8133 67.6267 43.2 64.96 43.2H54.72V57.2ZM66 80.88C68.72 80.88 70.8267 80.24 72.32 78.96C73.8667 77.68 74.64 75.8667 74.64 73.52C74.64 71.12 73.84 69.2533 72.24 67.92C70.64 66.5333 68.48 65.84 65.76 65.84H54.72V80.88H66Z" fill="white"/>
<circle cx="10" cy="85" r="5" fill="white"/>
<circle cx="10" cy="61" r="5" fill="white"/>
<circle cx="10" cy="37" r="5" fill="white"/>
</svg>
